<svg height="512pt" viewBox="0 0 512 512" width="512pt" xmlns="http://www.w3.org/2000/svg"><path d="m474.125 157.40625h-115.191406c-2.398438 0-4.339844-1.945312-4.339844-4.339844v-115.191406c0-20.917969-16.957031-37.875-37.875-37.875h-121.4375c-20.917969 0-37.875 16.957031-37.875 37.875v115.191406c0 2.394532-1.941406 4.339844-4.339844 4.339844h-115.191406c-20.917969 0-37.875 16.957031-37.875 37.875v121.4375c0 20.917969 16.957031 37.875 37.875 37.875h115.191406c2.398438 0 4.339844 1.945312 4.339844 4.339844v115.191406c0 20.917969 16.957031 37.875 37.875 37.875h121.4375c20.917969 0 37.875-16.957031 37.875-37.875v-115.191406c0-2.394532 1.941406-4.339844 4.339844-4.339844h115.1875c20.917968 0 37.875-16.957031 37.875-37.875v-121.4375c.003906-20.917969-16.953125-37.875-37.871094-37.875zm0 0" fill="#8bcaff"/><g fill="#60b8ff"><path d="m33.535156 316.71875v-121.4375c0-20.917969 16.960938-37.875 37.878906-37.875h-33.535156c-20.921875 0-37.878906 16.957031-37.878906 37.875v121.4375c0 20.917969 16.957031 37.875 37.875 37.875h33.539062c-20.917968 0-37.878906-16.957031-37.878906-37.875zm0 0"/><path d="m190.945312 153.066406v-115.191406c0-20.917969 16.957032-37.875 37.875-37.875h-33.539062c-20.917969 0-37.875 16.957031-37.875 37.875v115.191406c0 2.394532-1.941406 4.339844-4.339844 4.339844h33.539063c2.394531 0 4.339843-1.945312 4.339843-4.339844zm0 0"/><path d="m190.945312 474.125v-115.191406c0-2.394532-1.945312-4.339844-4.339843-4.339844h-33.539063c2.398438 0 4.339844 1.945312 4.339844 4.339844v115.191406c0 20.917969 16.957031 37.875 37.875 37.875h33.539062c-20.917968 0-37.875-16.957031-37.875-37.875zm0 0"/></g><path d="m474.125 190.941406h-148.726562c-2.398438 0-4.339844-1.941406-4.339844-4.339844v-148.726562c0-2.394531-1.941406-4.339844-4.339844-4.339844h-121.4375c-2.394531 0-4.339844 1.945313-4.339844 4.339844v148.726562c0 2.398438-1.941406 4.339844-4.335937 4.339844h-148.726563c-2.398437 0-4.339844 1.945313-4.339844 4.339844v121.4375c0 2.394531 1.941407 4.339844 4.339844 4.339844h148.726563c2.394531 0 4.335937 1.941406 4.335937 4.335937v148.726563c0 2.398437 1.945313 4.339844 4.339844 4.339844h121.4375c2.394531 0 4.339844-1.941407 4.339844-4.339844v-148.722656c0-2.398438 1.941406-4.339844 4.339844-4.339844h148.726562c2.394531 0 4.339844-1.945313 4.339844-4.339844v-121.4375c0-2.394531-1.945313-4.339844-4.339844-4.339844zm0 0" fill="#22a7ff"/><path d="m221.847656 186.601562v-148.726562c0-2.394531 1.941406-4.339844 4.339844-4.339844h-30.90625c-2.394531 0-4.339844 1.945313-4.339844 4.339844v148.726562c0 2.398438-1.941406 4.339844-4.335937 4.339844h30.902343c2.398438 0 4.339844-1.941406 4.339844-4.339844zm0 0" fill="#0094fd"/><path d="m64.441406 316.71875v-121.4375c0-2.394531 1.945313-4.339844 4.339844-4.339844h-30.902344c-2.398437 0-4.34375 1.945313-4.34375 4.339844v121.4375c0 2.398438 1.945313 4.339844 4.34375 4.339844h30.902344c-2.394531 0-4.339844-1.945313-4.339844-4.339844zm0 0" fill="#0094fd"/><path d="m221.847656 474.125v-148.726562c0-2.398438-1.941406-4.339844-4.339844-4.339844h-30.902343c2.394531 0 4.335937 1.941406 4.335937 4.339844v148.726562c0 2.394531 1.945313 4.339844 4.339844 4.339844h30.90625c-2.398438 0-4.339844-1.945313-4.339844-4.339844zm0 0" fill="#0094fd"/></svg>